# xmcd
#
# Track frame offsets:
#	150
#	13698
#	28253
#	42860
#	55055
#	66315
#	84135
#	95313
#	107225
#	120708
#	138433
#	151543
#	163210
#	177498
#
# Disc length: 2530
#
# Revision: 4
# Processed by: cddbd v1.5.1PL0 Copyright (c) Steve Scherf et al.
# Submitted via: OrangeCD 5.2
# Normalized: r3:DSETVAR1
#
DISCID=b209e00e
DTITLE=Various Artist - Mr Music Country  07-94
DYEAR=1900
DGENRE=Country
TTITLE0=Marty Stuart - Kiss me I'm gone
TTITLE1=The Mavericks - There goes my heart
TTITLE2=Reba McEntire - They asked about you
TTITLE3=George Strait - Thats where my baby feels at home
TTITLE4=Darrell McCall - Reconsider leaving me
TTITLE5=Vince Gill - Look at us
TTITLE6=Kelly Willis - Heaven's just a sin away
TTITLE7=Rodney Crowell - The best years of our lives
TTITLE8=Tracy Bird - Talk to me Texas
TTITLE9=Trisha Yearwood - For reason's I've forgoten
TTITLE10=Mark Chesnutt - It sure is Monday
TTITLE11=Gary Lee Hale - I dont mind keeping up with the Jones as long as the Jones is George
TTITLE12=Lou Ann Fisher - Consider the lilies
TTITLE13=George Jones - Drive me drunk
EXTD=
EXTT0=Marty Stuart
EXTT1=The Mavericks
EXTT2=Reba McEntire
EXTT3=George Strait
EXTT4=Darrel McCall
EXTT5=Vince Gill
EXTT6=Kelly Willis
EXTT7=Rodney Crowell
EXTT8=Tracy Bird
EXTT9=Thrisa Yearwood
EXTT10=Mark Chesnutt
EXTT11=Gary Lee Hale
EXTT12=Lou Ann Fisher
EXTT13=George Jones
PLAYORDER=
